<svg width="280" height="71" viewBox="0 0 280 71" fill="none" xmlns="http://www.w3.org/2000/svg">
<path d="M89.5051 55.7589L92.9911 47.7085C96.7581 50.5037 101.762 51.9573 106.71 51.9573C110.365 51.9573 112.67 50.5597 112.67 48.4352C112.614 42.5093 90.7983 47.1494 90.6296 32.2785C90.5734 24.7313 97.3204 18.9171 106.879 18.9171C112.557 18.9171 118.236 20.3148 122.284 23.5014L119.023 31.7195C115.312 29.3715 110.702 27.6943 106.316 27.6943C103.336 27.6943 101.369 29.0919 101.369 30.8809C101.425 36.6951 123.409 33.5085 123.634 47.7085C123.634 55.4234 117.055 60.8463 107.61 60.8463C100.694 60.8463 94.3405 59.225 89.5051 55.7589ZM223.264 44.8014C221.521 47.8203 218.26 49.8888 214.493 49.8888C208.927 49.8888 204.429 45.4163 204.429 39.8817C204.429 34.347 208.927 29.8746 214.493 29.8746C218.26 29.8746 221.521 31.9431 223.264 34.962L232.879 29.651C229.28 23.2778 222.365 18.9171 214.493 18.9171C202.855 18.9171 193.409 28.3093 193.409 39.8817C193.409 51.4541 202.855 60.8463 214.493 60.8463C222.421 60.8463 229.28 56.5415 232.879 50.1124L223.264 44.8014ZM128.469 1.53052H140.501V60.0636H128.469V1.53052ZM237.602 1.53052V60.0636H249.634V42.5093L263.915 60.0636H279.32L261.16 39.2108L277.971 19.7557H263.24L249.634 35.9124V1.53052H237.602ZM176.26 44.9132C174.517 47.7644 170.919 49.8888 166.871 49.8888C161.304 49.8888 156.806 45.4163 156.806 39.8817C156.806 34.347 161.304 29.8746 166.871 29.8746C170.919 29.8746 174.517 32.1108 176.26 35.0179V44.9132ZM176.26 19.7557V24.5077C174.292 21.2093 169.401 18.9171 164.284 18.9171C153.714 18.9171 145.393 28.1974 145.393 39.8258C145.393 51.4541 153.714 60.8463 164.284 60.8463C169.401 60.8463 174.292 58.5541 176.26 55.2557V60.0077H188.292V19.7557H176.26Z" fill="black"/>
<path d="M15.12 44.8572C15.12 48.9383 11.8027 52.2367 7.6983 52.2367C3.59388 52.2367 0.276611 48.9383 0.276611 44.8572C0.276611 40.7761 3.59388 37.4777 7.6983 37.4777H15.12V44.8572ZM18.8308 44.8572C18.8308 40.7761 22.1481 37.4777 26.2525 37.4777C30.3569 37.4777 33.6742 40.7761 33.6742 44.8572V63.306C33.6742 67.3871 30.3569 70.6855 26.2525 70.6855C22.1481 70.6855 18.8308 67.3871 18.8308 63.306V44.8572Z" fill="#E01E5A"/>
<path d="M26.2521 15.2273C22.1477 15.2273 18.8304 11.9289 18.8304 7.84779C18.8304 3.76669 22.1477 0.468262 26.2521 0.468262C30.3565 0.468262 33.6738 3.76669 33.6738 7.84779V15.2273H26.2521ZM26.2521 18.973C30.3565 18.973 33.6738 22.2714 33.6738 26.3525C33.6738 30.4336 30.3565 33.732 26.2521 33.732H7.64166C3.53724 33.732 0.219971 30.4336 0.219971 26.3525C0.219971 22.2714 3.53724 18.973 7.64166 18.973H26.2521Z" fill="#36C5F0"/>
<path d="M55.9951 26.3525C55.9951 22.2714 59.3124 18.973 63.4168 18.973C67.5212 18.973 70.8385 22.2714 70.8385 26.3525C70.8385 30.4336 67.5212 33.732 63.4168 33.732H55.9951V26.3525ZM52.2843 26.3525C52.2843 30.4336 48.967 33.732 44.8626 33.732C40.7582 33.732 37.4409 30.4336 37.4409 26.3525V7.84779C37.4409 3.76669 40.7582 0.468262 44.8626 0.468262C48.967 0.468262 52.2843 3.76669 52.2843 7.84779V26.3525Z" fill="#2EB67D"/>
<path d="M44.8626 55.9265C48.967 55.9265 52.2843 59.2249 52.2843 63.306C52.2843 67.3871 48.967 70.6855 44.8626 70.6855C40.7582 70.6855 37.4409 67.3871 37.4409 63.306V55.9265H44.8626ZM44.8626 52.2367C40.7582 52.2367 37.4409 48.9383 37.4409 44.8572C37.4409 40.7761 40.7582 37.4777 44.8626 37.4777H63.473C67.5775 37.4777 70.8947 40.7761 70.8947 44.8572C70.8947 48.9383 67.5775 52.2367 63.473 52.2367H44.8626Z" fill="#ECB22E"/>
</svg>
